<!--?xml version="1.0" standalone="no"?-->
              <svg id="sw-js-blob-svg" viewBox="0 0 100 100" xmlns="http://www.w3.org/2000/svg" version="1.1">
                    <defs> 
                        <linearGradient id="sw-gradient" x1="0" x2="1" y1="1" y2="0">
                            <stop id="stop1" stop-color="rgba(248, 117, 55, 1)" offset="0%"></stop>
                            <stop id="stop2" stop-color="rgba(251, 168, 31, 1)" offset="100%"></stop>
                        </linearGradient>
                    </defs>
                <path fill="url(#sw-gradient)" d="M25.5,-33.7C30.3,-26.3,29.8,-15.7,31.2,-5.8C32.5,4.1,35.8,13.3,32.8,19.2C29.7,25,20.3,27.4,12,28.5C3.7,29.6,-3.5,29.4,-10.3,27.3C-17.1,25.2,-23.7,21.3,-29.9,15.1C-36.2,8.8,-42.2,0.1,-40.3,-6.5C-38.5,-13.2,-28.8,-18,-20.7,-24.8C-12.7,-31.6,-6.4,-40.5,2,-42.9C10.3,-45.2,20.6,-41,25.5,-33.7Z" width="100%" height="100%" transform="translate(50 50)" stroke-width="0" style="transition: all 0.3s ease 0s;"></path>
              </svg>